<?xml version="1.0"?>
<svg xmlns="http://www.w3.org/2000/svg" xmlns:xlink="http://www.w3.org/1999/xlink" version="1.1" id="Capa_1" x="0px" y="0px" viewBox="0 0 480.005 480.005" style="enable-background:new 0 0 480.005 480.005;" xml:space="preserve" width="512px" height="512px"><g><g>
	<g>
		<g>
			<path d="M296,416.002h-8v-136c0-13.255-10.745-24-24-24H40c-13.255,0-24,10.745-24,24v136H8c-4.418,0-8,3.582-8,8v24     c0,8.837,7.163,16,16,16h272c8.837,0,16-7.163,16-16v-24C304,419.584,300.418,416.002,296,416.002z M32,280.002     c0-4.418,3.582-8,8-8h224c4.418,0,8,3.582,8,8v136H32V280.002z M288,448.002H16v-16h112c0,4.418,3.582,8,8,8h32     c4.418,0,8-3.582,8-8h112V448.002z" data-original="#000000" class="active-path" data-old_color="#000000" fill="#FFFFFF"/>
			<rect x="144" y="336.002" width="16" height="16" data-original="#000000" class="active-path" data-old_color="#000000" fill="#FFFFFF"/>
			<rect x="192" y="336.002" width="16" height="16" data-original="#000000" class="active-path" data-old_color="#000000" fill="#FFFFFF"/>
			<rect x="96" y="336.002" width="16" height="16" data-original="#000000" class="active-path" data-old_color="#000000" fill="#FFFFFF"/>
			<path d="M449.92,51.651c-1.765-1.892-3.596-3.723-5.488-5.488c-2.581-2.421-5.264-4.707-8.048-6.856     c-19.456-15.063-43.354-23.258-67.96-23.304h-0.848c-7.016,0.02-14.015,0.698-20.904,2.024     c-20.652,3.994-39.752,13.748-55.096,28.136c-45.197,42.166-47.654,112.987-5.488,158.184c1.766,1.892,3.596,3.723,5.488,5.488     c2.581,2.421,5.264,4.707,8.048,6.856c19.453,15.065,43.348,23.262,67.952,23.312h0.848c7.016-0.02,14.015-0.698,20.904-2.024     c20.651-3.994,39.752-13.748,55.096-28.136l0.008-0.008C489.629,167.669,492.086,96.848,449.92,51.651z M311.408,50.562     c1.272-0.936,2.568-1.848,3.888-2.72c0.504-0.336,0.992-0.696,1.504-1.016c0.632-0.4,1.288-0.744,1.928-1.128     c1.816-1.088,3.632-2.168,5.512-3.128c0.616-0.32,1.248-0.576,1.864-0.88c1.904-0.92,3.832-1.8,5.792-2.6     c0.912-0.368,1.84-0.688,2.768-1.024c1.704-0.632,3.424-1.232,5.176-1.76c1.016-0.312,2.04-0.6,3.064-0.872     c1.264-0.344,2.544-0.624,3.816-0.912c-6.271,7.307-11.782,15.233-16.448,23.656c-6.547-1.975-12.924-4.471-19.072-7.464     L311.408,50.562z M298.496,61.994c7.818,4.36,16.027,7.978,24.52,10.808c-6.283,14.996-9.934,30.963-10.792,47.2h-39.808     C274.282,98.269,283.478,77.815,298.496,61.994z M298.496,194.002c-15.011-15.822-24.206-36.271-26.08-58h39.808     c0.856,16.237,4.507,32.204,10.792,47.2C314.524,186.03,306.315,189.645,298.496,194.002z M344,220.922     c-0.928-0.24-1.712-0.432-2.56-0.672c-0.584-0.168-1.176-0.328-1.76-0.512c-1.376-0.424-2.72-0.912-4.072-1.392     c-0.896-0.328-1.8-0.632-2.68-0.976c-0.368-0.144-0.752-0.272-1.12-0.424c-1.472-0.6-2.904-1.288-4.336-1.96     c-1.152-0.536-2.312-1.024-3.44-1.6c-1.512-0.8-2.976-1.672-4.456-2.544c-0.944-0.552-1.912-1.064-2.84-1.648     c-0.528-0.344-1.04-0.72-1.6-1.064c-1.144-0.8-2.264-1.6-3.376-2.4l-0.592-0.424c6.159-3,12.547-5.504,19.104-7.488     c4.682,8.472,10.22,16.442,16.528,23.784C345.864,221.394,344.928,221.162,344,220.922z M360,212.442     c-5.112-5.762-9.685-11.98-13.664-18.576c4.522-0.78,9.084-1.314,13.664-1.6V212.442z M360,176.266     c-7.122,0.381-14.206,1.293-21.192,2.728c-5.971-13.604-9.479-28.161-10.36-42.992H360V176.266z M360,120.002h-31.552     c0.878-14.829,4.386-29.383,10.36-42.984c6.986,1.44,14.07,2.355,21.192,2.736V120.002z M360,63.738     c-4.58-0.286-9.142-0.82-13.664-1.6c3.978-6.596,8.552-12.814,13.664-18.576V63.738z M437.504,62.002     c15.011,15.822,24.206,36.271,26.08,58h-39.808c-0.858-16.236-4.506-32.202-10.784-47.2     C421.48,69.97,429.686,66.355,437.504,62.002z M392,35.122c0.928,0.24,1.712,0.432,2.56,0.672     c0.584,0.168,1.176,0.328,1.76,0.512c1.376,0.424,2.72,0.912,4.072,1.392c0.896,0.328,1.8,0.632,2.688,0.984     c0.368,0.144,0.744,0.264,1.112,0.416c1.464,0.6,2.896,1.288,4.336,1.96c1.152,0.536,2.312,1.024,3.44,1.6     c1.512,0.8,2.976,1.672,4.456,2.544c0.944,0.552,1.912,1.064,2.84,1.648c0.528,0.344,1.04,0.72,1.6,1.064     c1.144,0.76,2.264,1.56,3.376,2.4l0.592,0.424c-6.159,2.987-12.547,5.475-19.104,7.44c-4.684-8.456-10.222-16.409-16.528-23.736     C390.136,34.65,391.072,34.882,392,35.122z M376,43.562c5.11,5.764,9.683,11.982,13.664,18.576     c-4.522,0.78-9.084,1.314-13.664,1.6V43.562z M376,79.754c7.122-0.381,14.206-1.296,21.192-2.736     c5.974,13.601,9.482,28.155,10.36,42.984H376V79.754z M376,136.002h31.552c-0.878,14.829-4.386,29.383-10.36,42.984     c-6.987-1.429-14.071-2.338-21.192-2.72V136.002z M376,192.266c4.58,0.286,9.142,0.82,13.664,1.6     c-3.975,6.598-8.549,12.816-13.664,18.576V192.266z M424.576,205.442c-1.272,0.936-2.552,1.848-3.864,2.712     c-0.512,0.336-1,0.704-1.52,1.024c-0.52,0.32-1.304,0.752-1.944,1.136c-1.808,1.088-3.624,2.16-5.496,3.12     c-0.608,0.32-1.248,0.576-1.864,0.88c-1.904,0.92-3.832,1.8-5.792,2.6c-0.912,0.368-1.84,0.688-2.768,1.024     c-1.704,0.632-3.424,1.232-5.176,1.76c-1.016,0.312-2.04,0.6-3.064,0.872c-1.264,0.344-2.544,0.624-3.816,0.912     c6.278-7.306,11.792-15.235,16.456-23.664c6.543,1.981,12.918,4.48,19.064,7.472L424.576,205.442z M437.504,194.01     c-7.818-4.36-16.027-7.978-24.52-10.808h0.04c6.272-14.998,9.909-30.965,10.752-47.2h39.808     C461.714,157.735,452.518,178.188,437.504,194.01z" data-original="#000000" class="active-path" data-old_color="#000000" fill="#FFFFFF"/>
			<rect x="368" y="256.002" width="16" height="16" data-original="#000000" class="active-path" data-old_color="#000000" fill="#FFFFFF"/>
			<rect x="368" y="288.002" width="16" height="16" data-original="#000000" class="active-path" data-old_color="#000000" fill="#FFFFFF"/>
			<rect x="368" y="320.002" width="16" height="16" data-original="#000000" class="active-path" data-old_color="#000000" fill="#FFFFFF"/>
			<rect x="368" y="352.002" width="16" height="16" data-original="#000000" class="active-path" data-old_color="#000000" fill="#FFFFFF"/>
			<rect x="368" y="384.002" width="16" height="16" data-original="#000000" class="active-path" data-old_color="#000000" fill="#FFFFFF"/>
			<rect x="320" y="432.002" width="16" height="16" data-original="#000000" class="active-path" data-old_color="#000000" fill="#FFFFFF"/>
			<path d="M376,416.002c-13.255,0-24,10.745-24,24s10.745,24,24,24s24-10.745,24-24S389.255,416.002,376,416.002z M376,448.002     c-4.418,0-8-3.582-8-8s3.582-8,8-8s8,3.582,8,8S380.418,448.002,376,448.002z" data-original="#000000" class="active-path" data-old_color="#000000" fill="#FFFFFF"/>
			<rect x="80" y="224.002" width="16" height="16" data-original="#000000" class="active-path" data-old_color="#000000" fill="#FFFFFF"/>
			<rect x="80" y="192.002" width="16" height="16" data-original="#000000" class="active-path" data-old_color="#000000" fill="#FFFFFF"/>
			<rect x="80" y="160.002" width="16" height="16" data-original="#000000" class="active-path" data-old_color="#000000" fill="#FFFFFF"/>
			<rect x="80" y="128.002" width="16" height="16" data-original="#000000" class="active-path" data-old_color="#000000" fill="#FFFFFF"/>
			<rect x="128" y="80.002" width="16" height="16" data-original="#000000" class="active-path" data-old_color="#000000" fill="#FFFFFF"/>
			<rect x="160" y="80.002" width="16" height="16" data-original="#000000" class="active-path" data-old_color="#000000" fill="#FFFFFF"/>
			<rect x="192" y="80.002" width="16" height="16" data-original="#000000" class="active-path" data-old_color="#000000" fill="#FFFFFF"/>
			<rect x="224" y="80.002" width="16" height="16" data-original="#000000" class="active-path" data-old_color="#000000" fill="#FFFFFF"/>
			<path d="M88,112.002c13.255,0,24-10.745,24-24s-10.745-24-24-24s-24,10.745-24,24S74.745,112.002,88,112.002z M88,80.002     c4.418,0,8,3.582,8,8s-3.582,8-8,8s-8-3.582-8-8S83.582,80.002,88,80.002z" data-original="#000000" class="active-path" data-old_color="#000000" fill="#FFFFFF"/>
		</g>
	</g>
</g></g> </svg>
