<svg height="512" viewBox="0 0 38 60" width="512" xmlns="http://www.w3.org/2000/svg"><g id="006---Girl-Power" transform="translate(0 -1)"><path id="Shape" d="m1 26.49c.04085844 3.9435511 2.20469354 7.5587343 5.661 9.458.79149116.3837169 1.30652485 1.1729993 1.339 2.052v20c0 1.6568542 1.34314575 3 3 3h16c1.6568542 0 3-1.3431458 3-3v-19.22c.0904264-.9390746.6611736-1.76416 1.508-2.18 3.9859796-1.7744331 6.5369942-5.7471315 6.492-10.11v-11.16c-.0052193-2.2582159-1.7480537-4.1317628-4-4.3v-3.83c0-2.31959595-1.8804041-4.2-4.2-4.2-1.657 0-2.75-.154-4.083.831-.6245919-1.69685673-2.238848-2.82607812-4.047-2.831-1.518 0-2.976-.15-4.4 1.272-.4364508.44407611-.7729649.97629335-.987 1.561-1.331-.987-2.425-.833-4.083-.833-2.1077371.00615642-3.88298079 1.57672902-4.146 3.668-1.254-.801-2.208-.668-3.854-.668-2.31959595 0-4.2 1.88040405-4.2 4.2v7.8c.00324382 1.071808.35414458 2.1136324 1 2.969zm35-11.16v11.16c.0437476 3.5662352-2.0354128 6.8176004-5.291 8.274-1.580236.7299428-2.6240722 2.2773944-2.709 4.016v19.22c0 .5522847-.4477153 1-1 1h-16c-.5522847 0-1-.4477153-1-1v-20c-.03825727-1.6042566-.94685446-3.0604647-2.371-3.8-2.82160091-1.5460115-4.59084376-4.4928386-4.629-7.71v-3.914c2.12911115.9411691 4.62631384.272335 6-1.607.83080192 1.1386842 2.1081352 1.8686106 3.5109437 2.0063132 1.4028084.1377025 2.7976949-.3299135 3.8340563-1.2853132.7712831 2.1405037 2.9009422 3.4808934 5.1644659 3.250472s4.079399-1.9724573 4.4035341-4.224472c.7994463.2173202 1.627052.3130595 2.455.284.1597211-.0026825.3134774.0606289.425.175.281.275.207.214.207 3.825 0 .5522847.4477153 1 1 1s1-.4477153 1-1v-3.33c.0037463-.7090963-.2762157-1.3902481-.7775356-1.8917558s-1.1823667-.7817249-1.8914644-.7782442c-1.1087637.1387454-2.2265801-.1760461-3.1-.873-1.249-1.2-1.766-3.228-.511-4.423.4802063-.4556495 1.1180337-.7079139 1.78-.704h7.17c1.2863664.0011028 2.3288972 1.0436336 2.33 2.33zm-7.8-10.33h1.6c1.2150264 0 2.2.98497355 2.2 2.2v3.8c-6.468 0-5.4-.017-6 .047v-3.847c0-1.21502645.9849736-2.2 2.2-2.2zm-10.2.33c.0103324-1.28251925 1.0474807-2.31966756 2.33-2.33h1.34c1.2863664.00110276 2.3288972 1.04363359 2.33 2.33v6.408c-2.871 1.866-2.458 5.79 0 7.949.0820391 1.5114626-.9209293 2.8681976-2.39 3.233-.9089005.1676237-1.8448433-.0849498-2.546021-.6870691-.7011776-.6021193-1.092307-1.4891369-1.063979-2.4129309zm-8 1.87c0-1.21502645.9849736-2.2 2.2-2.2h1.6c1.2150264 0 2.2.98497355 2.2 2.2v10.8c0 1.6568542-1.3431458 2.9999999-3 2.9999999s-3-1.3431457-3-2.9999999zm-8 3c0-1.21502645.98497355-2.2 2.2-2.2h1.6c1.21502645 0 2.2.98497355 2.2 2.2v7.8c0 1.6568542-1.34314575 3-3 3s-3-1.3431458-3-3z"/><path id="Shape" d="m24.684 27.051c-6.608 2.202-6.684 7.716-6.684 7.949-.0000135.5495626.4434509.9961531.993 1h.007c.548789.0000222.9950609-.4422332 1-.991 0-.175.115-4.324 5.316-6.057.5246705-.174522.8085219-.7413295.634-1.266-.174522-.5246705-.7413295-.808522-1.266-.634z"/><path id="Shape" d="m19 38c-3.1057016.0179882-5.6843562 2.4030237-5.9442104 5.4978875-.2598542 3.0948637 1.8849909 5.8764987 4.9442104 6.4121125v2.09h-2c-.5522847 0-1 .4477153-1 1s.4477153 1 1 1h2v2c0 .5522847.4477153 1 1 1s1-.4477153 1-1v-2h2c.5522847 0 1-.4477153 1-1s-.4477153-1-1-1h-2v-2.09c3.0592195-.5356138 5.2040646-3.3172488 4.9442104-6.4121125-.2598542-3.0948638-2.8385088-5.4798993-5.9442104-5.4978875zm0 10c-2.209139 0-4-1.790861-4-4s1.790861-4 4-4 4 1.790861 4 4-1.790861 4-4 4z"/></g></svg>