<svg height="512" viewBox="0 0 42 58" width="512" xmlns="http://www.w3.org/2000/svg"><g id="008---Gender-Equality-Symbol"><path id="Shape" d="m15 41.88v7.12h-5c-.55228475 0-1 .4477153-1 1v2c0 .5522847.44771525 1 1 1h5v4c0 .5522847.4477153 1 1 1h2c.5522847 0 1-.4477153 1-1v-4h5c.5522847 0 1-.4477153 1-1v-2c0-.5522847-.4477153-1-1-1h-5v-7.12c6.1044019-.7308843 11.3392633-4.6990767 13.6920984-10.3790486 2.3528351-5.679972 1.4573873-12.1875444-2.3420984-17.0209514l7.65-7.65v4.17c0 .5522847.4477153 1 1 1h2c.5522847 0 1-.4477153 1-1v-10c0-.55228475-.4477153-1-1-1h-10c-.5522847 0-1 .44771525-1 1v2c0 .55228475.4477153 1 1 1h4.17l-7.65 7.65c-10.908-8.643-27.52-1.035-27.52 13.35.0009846 8.6144607 6.44536263 15.8665341 15 16.88zm2-29.88c7.1797017 0 13 5.8202983 13 13s-5.8202983 13-13 13c-7.17970175 0-13-5.8202983-13-13 .00826602-7.1762751 5.82372494-12.991734 13-13z"/><path id="Shape" d="m12 31h10c1.1045695 0 2-.8954305 2-2s-.8954305-2-2-2h-10c-1.1045695 0-2 .8954305-2 2s.8954305 2 2 2z"/><path id="Shape" d="m12 23h10c1.1045695 0 2-.8954305 2-2s-.8954305-2-2-2h-10c-1.1045695 0-2 .8954305-2 2s.8954305 2 2 2z"/></g></svg>